<svg xmlns="http://www.w3.org/2000/svg" viewBox="0 0 512 512" width="512" height="512">
  <defs>
    <linearGradient id="bg" x1="0%" y1="0%" x2="100%" y2="100%">
      <stop offset="0%" style="stop-color:#1a1a2e;stop-opacity:1" />
      <stop offset="100%" style="stop-color:#16213e;stop-opacity:1" />
    </linearGradient>
    <linearGradient id="leaf" x1="0%" y1="0%" x2="100%" y2="100%">
      <stop offset="0%" style="stop-color:#e74c3c;stop-opacity:1" />
      <stop offset="100%" style="stop-color:#c0392b;stop-opacity:1" />
    </linearGradient>
  </defs>
  <!-- Background circle -->
  <circle cx="256" cy="256" r="240" fill="url(#bg)" stroke="#2c3e50" stroke-width="4"/>
  <!-- Maple leaf (simplified) -->
  <g transform="translate(256,270) scale(1.8)">
    <path d="M0,-80 L12,-45 L45,-55 L30,-25 L55,-15 L25,0 L40,30 L15,20 L0,55 L-15,20 L-40,30 L-25,0 L-55,-15 L-30,-25 L-45,-55 L-12,-45 Z" fill="url(#leaf)" stroke="#a93226" stroke-width="1.5"/>
    <!-- Stem -->
    <line x1="0" y1="55" x2="0" y2="80" stroke="#8b4513" stroke-width="5" stroke-linecap="round"/>
  </g>
  <!-- Shield/lock overlay for TEE/security -->
  <g transform="translate(370,370) scale(0.6)">
    <path d="M0,-50 L40,-35 L40,10 C40,40 0,60 0,60 C0,60 -40,40 -40,10 L-40,-35 Z" fill="none" stroke="#3498db" stroke-width="5" opacity="0.8"/>
    <circle cx="0" cy="-5" r="10" fill="none" stroke="#3498db" stroke-width="4" opacity="0.8"/>
    <rect x="-12" y="0" width="24" height="18" rx="3" fill="#3498db" opacity="0.8"/>
  </g>
</svg>
